<mxfile host="app.diagrams.net" modified="2025-01-22T14:19:49.645Z" agent="Mozilla/5.0 (Windows NT 10.0; Win64; x64) AppleWebKit/537.36 (KHTML, like Gecko) Chrome/131.0.0.0 Safari/537.36" version="24.2.3" etag="C8tFV7NdpJ6ASmpmiUPF" type="github">
  <diagram name="PÃ¡gina-1" id="DIqiec4cCK1lF-HfV5IR">
    <mxGraphModel>
      <root>
        <mxCell id="0" />
        <mxCell id="1" parent="0" />
      </root>
    </mxGraphModel>
  </diagram>
</mxfile>
